# xmcd CD database file
#
# Track frame offsets:
#	183
#	14863
#	29190
#	43888
#	55500
#	71005
#	86575
#	101505
#	116548
#	131433
#	145320
#	159095
#	173313
#	186710
#	198400
#	210715
#	221508
#	237560
#	249138
#	261673
#	273698
#	285310
#
# Disc length: 3983 seconds
#
# Revision: 1
# Processed by: cddbd v1.5.1PL0 Copyright (c) Steve Scherf et al.
# Submitted via: CDex 1.51
#
DISCID=510f8d16
DTITLE=Fletcher Henderson - Under the Harlem Moon
DYEAR=1900
DGENRE=Jazz
TTITLE0=Honeysuckle Rose
TTITLE1=New King Porter Stomp
TTITLE2=Underneath the Harlem Moon
TTITLE3=Queer Notions
TTITLE4=Night Life
TTITLE5=Nagasaki
TTITLE6=Rhythm Crazy Now
TTITLE7=Ain't Cha Glad?
TTITLE8=Hocus Pocus
TTITLE9=Tidal Wave
TTITLE10=Christopher Columbus
TTITLE11=Blue Lou
TTITLE12=Stealin' Apples
TTITLE13=Jangled Nerves
TTITLE14=Grand Terrace Rhythm
TTITLE15=Riffin'
TTITLE16=Shoe Shine Boy
TTITLE17=Sing, Sing, Sing
TTITLE18=Jimtown Blues
TTITLE19=Rhythm of the Tambourine
TTITLE20=Back in Your Own Backyard
TTITLE21=Chris and His Gang
EXTD=
EXTT0=
EXTT1=
EXTT2=
EXTT3=
EXTT4=
EXTT5=
EXTT6=
EXTT7=
EXTT8=
EXTT9=
EXTT10=
EXTT11=
EXTT12=
EXTT13=
EXTT14=
EXTT15=
EXTT16=
EXTT17=
EXTT18=
EXTT19=
EXTT20=
EXTT21=
PLAYORDER=
